<?xml version="1.0" encoding="UTF-8"?>
<svg id="svg2" xmlns="http://www.w3.org/2000/svg" version="1.1" xmlns:inkscape="http://www.inkscape.org/namespaces/inkscape" xmlns:sodipodi="http://sodipodi.sourceforge.net/DTD/sodipodi-0.dtd" xmlns:svg="http://www.w3.org/2000/svg" xmlns:xlink="http://www.w3.org/1999/xlink" viewBox="0 0 910.5 239.1">
  <defs>
    <style>
      .cls-1 {
        fill: #fbb03b;
      }

      .cls-1, .cls-2, .cls-3, .cls-4, .cls-5, .cls-6, .cls-7, .cls-8, .cls-9, .cls-10, .cls-11 {
        stroke-width: 0px;
      }

      .cls-2 {
        fill: #55585d;
      }

      .cls-3 {
        fill: url(#linear-gradient);
      }

      .cls-4 {
        fill: url(#linear-gradient-6);
      }

      .cls-5 {
        fill: url(#linear-gradient-5);
      }

      .cls-6 {
        fill: none;
      }

      .cls-12 {
        clip-path: url(#clippath-1);
      }

      .cls-7 {
        fill: url(#linear-gradient-2);
      }

      .cls-8 {
        fill: url(#linear-gradient-7);
      }

      .cls-9 {
        fill: url(#linear-gradient-3);
      }

      .cls-13 {
        clip-path: url(#clippath);
      }

      .cls-10 {
        fill: url(#linear-gradient-8);
      }

      .cls-11 {
        fill: url(#linear-gradient-4);
      }
    </style>
    <linearGradient id="linear-gradient" x1="-60" y1="629.9" x2="-59" y2="629.9" gradientTransform="translate(12004.5 126253.2) scale(200.2 -200.2)" gradientUnits="userSpaceOnUse">
      <stop offset="0" stop-color="#fcbb40"/>
      <stop offset="0" stop-color="#fcbb40"/>
      <stop offset="0" stop-color="#fcbb40"/>
      <stop offset="1" stop-color="#fcbb40"/>
    </linearGradient>
    <clipPath id="clippath">
      <rect class="cls-6" x="-230.1" y="-566.8" width="1365.3" height="1365.3"/>
    </clipPath>
    <linearGradient id="linear-gradient-2" x1="-58.3" y1="630.9" x2="-57.3" y2="630.9" gradientTransform="translate(143485.6 -12987.1) rotate(-90) scale(226.8 -226.8)" gradientUnits="userSpaceOnUse">
      <stop offset="0" stop-color="#fcbb40"/>
      <stop offset="0" stop-color="#fcbb40"/>
      <stop offset="0" stop-color="#fcbb40"/>
      <stop offset="1" stop-color="#fcbb40"/>
    </linearGradient>
    <linearGradient id="linear-gradient-3" x1="-58.3" y1="630.5" x2="-57.3" y2="630.5" gradientTransform="translate(143485.6 -12987.1) rotate(-90) scale(226.8 -226.8)" gradientUnits="userSpaceOnUse">
      <stop offset="0" stop-color="#fcbb40"/>
      <stop offset="0" stop-color="#fcbb40"/>
      <stop offset="0" stop-color="#fcbb40"/>
      <stop offset="1" stop-color="#fcbb40"/>
    </linearGradient>
    <linearGradient id="linear-gradient-4" x1="-58.3" y1="630.2" x2="-57.3" y2="630.2" gradientTransform="translate(143485.6 -12987.1) rotate(-90) scale(226.8 -226.8)" gradientUnits="userSpaceOnUse">
      <stop offset="0" stop-color="#fcbb40"/>
      <stop offset="0" stop-color="#fcbb40"/>
      <stop offset="0" stop-color="#fcbb40"/>
      <stop offset="1" stop-color="#fcbb40"/>
    </linearGradient>
    <linearGradient id="linear-gradient-5" x1="-58.3" y1="629.8" x2="-57.3" y2="629.8" gradientTransform="translate(143485.6 -12987.1) rotate(-90) scale(226.8 -226.8)" gradientUnits="userSpaceOnUse">
      <stop offset="0" stop-color="#fcbb40"/>
      <stop offset="0" stop-color="#fcbb40"/>
      <stop offset="0" stop-color="#fcbb40"/>
      <stop offset="1" stop-color="#fcbb40"/>
    </linearGradient>
    <linearGradient id="linear-gradient-6" x1="-58.3" y1="629.5" x2="-57.3" y2="629.5" gradientTransform="translate(143485.6 -12987.1) rotate(-90) scale(226.8 -226.8)" gradientUnits="userSpaceOnUse">
      <stop offset="0" stop-color="#fcbb40"/>
      <stop offset="0" stop-color="#fcbb40"/>
      <stop offset="0" stop-color="#fcbb40"/>
      <stop offset="1" stop-color="#fcbb40"/>
    </linearGradient>
    <linearGradient id="linear-gradient-7" x1="-58.3" y1="629.2" x2="-57.3" y2="629.2" gradientTransform="translate(143485.6 -12987.1) rotate(-90) scale(226.8 -226.8)" gradientUnits="userSpaceOnUse">
      <stop offset="0" stop-color="#fcbb40"/>
      <stop offset="0" stop-color="#fcbb40"/>
      <stop offset="0" stop-color="#fcbb40"/>
      <stop offset="1" stop-color="#fcbb40"/>
    </linearGradient>
    <linearGradient id="linear-gradient-8" x1="-58.3" y1="628.8" x2="-57.3" y2="628.8" gradientTransform="translate(143485.6 -12987.1) rotate(-90) scale(226.8 -226.8)" gradientUnits="userSpaceOnUse">
      <stop offset="0" stop-color="#fcbb40"/>
      <stop offset="0" stop-color="#fcbb40"/>
      <stop offset="0" stop-color="#fcbb40"/>
      <stop offset="1" stop-color="#fcbb40"/>
    </linearGradient>
    <clipPath id="clippath-1">
      <rect class="cls-6" x="-230.1" y="-566.8" width="1365.3" height="1365.3"/>
    </clipPath>
  </defs>
  <sodipodi:namedview id="namedview4" bordercolor="#000000" borderopacity="0.25" inkscape:deskcolor="#d1d1d1" inkscape:pagecheckerboard="0" inkscape:pageopacity="0.0" inkscape:showpageshadow="2" pagecolor="#ffffff"/>
  <g id="g8" inkscape:groupmode="layer" inkscape:label="LOGO_Bauprojekt_Mai2024_Illustrator">
    <g id="g10">
      <g id="g12">
        <g id="g18">
          <g id="g20">
            <path id="path32" class="cls-3" d="M33.9,33.9c-45.2,45.2-45.2,118.6,0,163.8h0c45.2,45.2,118.6,45.2,163.8,0h0c.8-.8,1.7-1.7,2.5-2.6h0c-27.8,25.7-71.1,25.3-98.6-1.1h0c-.4-.4-.8-.7-1.2-1.1h0c-.5-.5-1.1-1.1-1.6-1.6h0c-16-16.9-22.2-39.5-18.7-61h0c1.4-8.7,4.4-17.1,9-24.9h0c.7-1.1,1.3-2.2,2.1-3.3h0c2.6-3.9,5.6-7.7,9.1-11.1h0c2-2,4-3.8,6.2-5.5h0c.8-.7,1.7-1.3,2.6-2h0c.4-.3.9-.6,1.3-.9h0c.9-.6,1.8-1.2,2.7-1.8h0c.5-.3.9-.6,1.4-.8h0c.4-.2.8-.5,1.1-.7h0c.8-.4,1.5-.9,2.3-1.3h0c.4-.2.8-.4,1.2-.6h0c23.6-11.7,52.2-9.7,74,6h0c3.6-22-3.1-45.4-20.1-62.4h0c-8.7-8.7-19.2-14.8-30.2-18.1h0c-6.8-1.6-13.8-2.6-20.8-3h0c-2.1-.1-4.1-.2-6.2-.2h0c-29.6,0-59.3,11.3-81.9,33.9"/>
          </g>
        </g>
      </g>
    </g>
    <g id="g34">
      <g class="cls-13">
        <g id="g36">
          <g id="g42">
            <path id="path44" class="cls-1" d="M397.1,138.6h12.6c1,0,1.9-.3,2.8-.9.9-.6,1.6-1.5,2.3-2.9.6-1.4.9-3.2.9-5.5s-.3-4.3-1-5.7c-.7-1.3-1.5-2.3-2.6-2.8-1-.5-2-.8-3-.8h-12v18.6ZM373.3,186v-86.7h37.4c4.2,0,8.1.9,11.7,2.6,3.6,1.7,6.7,4,9.3,6.9,2.6,2.9,4.6,6.1,6,9.7,1.4,3.6,2.1,7.2,2.1,10.9s-1.2,10-3.6,14.5c-2.4,4.6-5.7,8.3-10,11.2-4.3,2.9-9.3,4.3-15,4.3h-14.2v26.6h-23.8Z"/>
          </g>
          <g id="g46">
            <path id="path48" class="cls-1" d="M473.1,138.6h15c1,0,1.9-.4,2.8-1.1.9-.7,1.6-1.8,2.3-3.2.6-1.4.9-3.1.9-5s-.3-3.7-1-5.1c-.7-1.3-1.5-2.4-2.6-3.1-1-.7-2-1.1-3-1.1h-14.4v18.6ZM449.3,186v-86.7h39.8c4.2,0,8.1.9,11.7,2.6,3.6,1.7,6.7,4,9.3,6.9,2.6,2.9,4.6,6.1,6,9.7,1.4,3.6,2.1,7.2,2.1,10.9s-.5,6.6-1.5,9.6c-1,3.1-2.4,5.9-4.3,8.5-1.9,2.6-4.1,4.8-6.7,6.7l18.3,31.9h-26.1l-15.3-26.6h-9.6v26.6h-23.8Z"/>
          </g>
          <g id="g50">
            <path id="path52" class="cls-1" d="M551.1,142.6c0,2.9.4,5.8,1.2,8.5.8,2.7,2,5.2,3.7,7.3,1.6,2.2,3.7,3.9,6.2,5.1,2.5,1.3,5.4,1.9,8.9,1.9s6.4-.6,8.9-2c2.5-1.3,4.6-3.1,6.2-5.3,1.6-2.2,2.8-4.7,3.5-7.4.8-2.7,1.2-5.5,1.2-8.4s-.4-5.7-1.2-8.4c-.8-2.7-2-5.1-3.7-7.3-1.6-2.2-3.7-3.8-6.2-5.1-2.5-1.2-5.5-1.8-8.8-1.8s-6.4.7-8.9,2c-2.5,1.3-4.5,3-6.2,5.2-1.6,2.2-2.8,4.6-3.6,7.3-.8,2.7-1.2,5.5-1.2,8.4M570.8,186.6c-6.6,0-12.6-1.2-17.9-3.7-5.4-2.5-10-5.8-13.9-10-3.9-4.2-6.8-8.9-8.9-14.2-2.1-5.2-3.1-10.7-3.1-16.3s1.1-11.3,3.3-16.5c2.2-5.2,5.3-9.9,9.2-14,3.9-4.1,8.6-7.3,14-9.7,5.4-2.4,11.3-3.5,17.8-3.5s12.6,1.2,17.9,3.7c5.4,2.5,10,5.8,13.8,10.1,3.8,4.2,6.8,9,8.9,14.2,2.1,5.2,3.1,10.6,3.1,16.2s-1.1,11.1-3.2,16.4c-2.2,5.2-5.2,9.9-9.2,14-3.9,4.1-8.6,7.4-14,9.8-5.4,2.4-11.3,3.6-17.8,3.6"/>
          </g>
          <g id="g54">
            <path id="path56" class="cls-1" d="M622.8,161.8c.5.3,2,1,4.6,2.1,2.6,1.1,5.7,1.6,9.2,1.6s4.6-.4,6.1-1.3c1.5-.8,2.7-2.2,3.5-3.9.8-1.8,1.3-4.1,1.6-6.9.3-2.9.4-6.3.4-10.4v-43.6h23.8v43.7c0,6.5-.4,12.5-1.2,17.8-.8,5.3-2.3,9.9-4.7,13.8-2.4,3.9-5.9,6.8-10.6,8.9-4.7,2.1-11,3.1-18.9,3.1s-7.2-.4-10.3-1.3c-3.1-.9-5.9-2.2-8.5-4l5-19.4Z"/>
          </g>
          <g id="g58">
            <path id="path60" class="cls-1" d="M747.6,165.2v20.8h-61.8v-86.7h60.7v20.8h-36.9v12.2h31.5v19.3h-31.5v13.7h38Z"/>
          </g>
          <g id="g62">
            <path id="path64" class="cls-1" d="M758.7,186v-86.7h23.8v33l26.4-33h26.9l-31.5,38.8,33.7,47.9h-27.3l-21.5-31.9-6.6,6.8v25h-23.8Z"/>
          </g>
          <g id="g66">
            <path id="path68" class="cls-1" d="M910.5,120h-24.9v65.9h-23.8v-65.9h-25v-20.8h73.7v20.8Z"/>
          </g>
        </g>
      </g>
    </g>
    <g id="g70">
      <g id="g72">
        <g id="g78">
          <g id="g80">
            <path id="path92" class="cls-7" d="M373.3,99.3v86.7h23.8v-26.6h14.2c5.7,0,10.7-1.4,15-4.3h0c4.3-2.9,7.6-6.6,10-11.2h0c2.4-4.6,3.6-9.4,3.6-14.5h0c0-3.7-.7-7.3-2.1-10.9h0c-1.4-3.6-3.4-6.8-6-9.7h0c-2.6-2.9-5.7-5.2-9.3-6.9h0c-3.6-1.7-7.5-2.6-11.7-2.6h-37.4ZM397.1,120h12c1,0,2,.3,3,.8h0c1,.5,1.9,1.5,2.6,2.8h0c.7,1.3,1,3.2,1,5.7h0c0,2.3-.3,4.1-.9,5.5h0c-.6,1.4-1.4,2.4-2.3,2.9h0c-.9.6-1.8.9-2.8.9h-12.6v-18.6Z"/>
          </g>
        </g>
      </g>
    </g>
    <g id="g94">
      <g id="g96">
        <g id="g102">
          <g id="g104">
            <path id="path116" class="cls-9" d="M449.3,99.3v86.7h23.8v-26.6h9.6l15.3,26.6h26.1l-18.3-31.9c2.6-1.9,4.8-4.1,6.7-6.7h0c1.9-2.6,3.3-5.4,4.3-8.5h0c1-3.1,1.5-6.3,1.5-9.6h0c0-3.7-.7-7.3-2.1-10.9h0c-1.4-3.6-3.4-6.8-6-9.7h0c-2.6-2.9-5.7-5.2-9.3-6.9h0c-3.6-1.7-7.5-2.6-11.7-2.6h-39.8ZM473.1,120h14.4c1,0,2,.4,3,1.1h0c1,.7,1.9,1.8,2.6,3.1h0c.7,1.3,1,3,1,5.1h0c0,2-.3,3.6-.9,5h0c-.6,1.4-1.4,2.4-2.3,3.2h0c-.9.7-1.8,1.1-2.8,1.1h-15v-18.6Z"/>
          </g>
        </g>
      </g>
    </g>
    <g id="g118">
      <g id="g120">
        <g id="g126">
          <g id="g128">
            <path id="path140" class="cls-11" d="M553.5,102.2c-5.4,2.4-10.1,5.6-14,9.7h0c-3.9,4.1-7,8.8-9.2,14h0c-2.2,5.2-3.3,10.7-3.3,16.5h0c0,5.6,1,11,3.1,16.3h0c2.1,5.2,5,10,8.9,14.2h0c3.9,4.2,8.5,7.5,13.9,10h0c5.4,2.5,11.4,3.7,17.9,3.7h0c6.5,0,12.5-1.2,17.8-3.6h0c5.4-2.4,10-5.7,14-9.8h0c3.9-4.1,7-8.8,9.2-14h0c2.2-5.2,3.2-10.7,3.2-16.4h0c0-5.5-1-10.9-3.1-16.2h0c-2.1-5.2-5-10-8.9-14.2h0c-3.8-4.2-8.4-7.6-13.8-10.1h0c-5.4-2.5-11.4-3.7-17.9-3.7h0c-6.4,0-12.3,1.2-17.8,3.5M562.2,163.6c-2.5-1.3-4.5-3-6.2-5.1h0c-1.6-2.2-2.9-4.6-3.7-7.3h0c-.8-2.7-1.2-5.6-1.2-8.5h0c0-2.8.4-5.6,1.2-8.4h0c.8-2.7,2-5.2,3.6-7.3h0c1.6-2.2,3.7-3.9,6.2-5.2h0c2.5-1.3,5.4-2,8.9-2h0c3.3,0,6.3.6,8.8,1.8h0c2.5,1.2,4.6,2.9,6.2,5.1h0c1.6,2.2,2.8,4.6,3.7,7.3h0c.8,2.7,1.2,5.5,1.2,8.4h0c0,2.8-.4,5.6-1.2,8.4h0c-.8,2.7-2,5.2-3.5,7.4h0c-1.6,2.2-3.6,4-6.2,5.3h0c-2.5,1.3-5.5,2-8.9,2h0c-3.4,0-6.4-.6-8.9-1.9"/>
          </g>
        </g>
      </g>
    </g>
    <g id="g142">
      <g id="g144">
        <g id="g150">
          <g id="g152">
            <path id="path164" class="cls-5" d="M648.2,99.3v43.6c0,4.1-.1,7.6-.4,10.4h0c-.3,2.9-.8,5.2-1.6,6.9h0c-.8,1.8-1.9,3.1-3.5,3.9h0c-1.5.8-3.6,1.3-6.1,1.3h0c-3.5,0-6.6-.5-9.2-1.6h0c-2.6-1.1-4.2-1.7-4.6-2.1h0l-5,19.4c2.6,1.8,5.4,3.1,8.5,4h0c3.1.9,6.5,1.3,10.3,1.3h0c7.9,0,14.2-1,18.9-3.1h0c4.7-2.1,8.3-5,10.6-8.9h0c2.4-3.9,3.9-8.5,4.7-13.8h0c.8-5.3,1.2-11.3,1.2-17.8h0v-43.7h-23.8Z"/>
          </g>
        </g>
      </g>
    </g>
    <g id="g166">
      <g id="g168">
        <g id="g174">
          <g id="g176">
            <path id="path188" class="cls-4" d="M685.9,99.3v86.7h61.8v-20.8h-38v-13.7h31.5v-19.3h-31.5v-12.2h36.9v-20.8h-60.7Z"/>
          </g>
        </g>
      </g>
    </g>
    <g id="g190">
      <g id="g192">
        <g id="g198">
          <g id="g200">
            <path id="path212" class="cls-8" d="M808.9,99.3l-26.4,33v-33h-23.8v86.7h23.8v-25l6.6-6.8,21.5,31.9h27.3l-33.7-47.9,31.5-38.8h-26.9Z"/>
          </g>
        </g>
      </g>
    </g>
    <g id="g214">
      <g id="g216">
        <g id="g222">
          <g id="g224">
            <path id="path236" class="cls-10" d="M836.7,99.3v20.8h25v65.9h23.8v-65.9h24.9v-20.8h-73.7Z"/>
          </g>
        </g>
      </g>
    </g>
    <g id="g238">
      <g class="cls-12">
        <g id="g240">
          <g id="g246">
            <path id="path248" class="cls-2" d="M167.9,158.6c0-1.5-.3-2.7-.8-3.8-.5-1.1-1.2-2-2.1-2.6-.9-.6-2-1-3.2-1h-19.7v14.5h18.8c1.3,0,2.5-.3,3.5-.9,1.1-.6,1.9-1.4,2.5-2.4.6-1.1.9-2.3.9-3.8M142.2,119.3v13.3h16.2c1.1,0,2.1-.2,3.1-.5,1-.4,1.8-1,2.4-2,.6-1,1-2.4,1-4.2s-.3-2.9-.8-3.8c-.5-.9-1.2-1.6-2.1-2.1-.9-.4-1.8-.7-2.9-.7h-17ZM192.1,163.5c0,5.2-1.4,9.4-4.2,12.7-2.8,3.3-6.6,5.7-11.3,7.2-4.7,1.5-9.9,2.3-15.6,2.3h-42.6v-86.7h50.3c4.1,0,7.6,1.1,10.6,3.2,3,2.2,5.2,4.9,6.8,8.4s2.4,7,2.4,10.6-1,7.9-3.1,11.6c-2.1,3.7-5.2,6.6-9.3,8.4,5,1.5,8.9,4,11.8,7.7,2.9,3.7,4.3,8.5,4.3,14.5"/>
          </g>
          <g id="g250">
            <path id="path252" class="cls-2" d="M241.9,152.8l-8.1-30.5-8.1,30.5h16.1ZM220.5,99h26.6l27.6,86.7h-24.2l-4.5-17h-24.5l-4.5,17h-24.3l27.7-86.7Z"/>
          </g>
          <g id="g254">
            <path id="path256" class="cls-2" d="M319.8,186.3c-6.9,0-12.9-1.1-17.8-3.4-5-2.3-9-5.4-12.1-9.4-3.1-4-5.4-8.6-6.9-13.7-1.5-5.2-2.2-10.6-2.2-16.3v-44.5h23.8v44.5c0,2.8.3,5.6.9,8.2.6,2.6,1.5,4.9,2.7,6.9,1.2,2,2.8,3.6,4.7,4.8s4.3,1.8,7,1.8,5.2-.6,7.2-1.8c2-1.2,3.5-2.8,4.7-4.9,1.2-2.1,2.1-4.4,2.6-7,.6-2.6.9-5.3.9-8v-44.5h23.8v44.5c0,6-.8,11.6-2.4,16.8-1.6,5.2-4,9.8-7.1,13.7-3.2,3.9-7.2,6.9-12.1,9.1-4.9,2.2-10.8,3.2-17.5,3.2"/>
          </g>
        </g>
      </g>
    </g>
  </g>
  <g>
    <path class="cls-2" d="M229.8,200.6c1.4-.8,3.1-1.1,4.9-1.1s4.2.6,6,1.7,3.2,2.7,4.2,4.8c1,2.1,1.6,4.5,1.6,7.2s-.5,5.2-1.6,7.3c-1,2.1-2.5,3.7-4.2,4.8s-3.8,1.7-6,1.7-3.5-.4-4.9-1.1c-1.4-.8-2.5-1.7-3.3-3v3.7h-8.2v-35.5h8.2v12.5c.8-1.2,1.9-2.3,3.3-3ZM236.5,208.3c-1.1-1.2-2.5-1.7-4.2-1.7s-3,.6-4.1,1.8c-1.1,1.2-1.7,2.8-1.7,4.8s.6,3.7,1.7,4.8c1.1,1.2,2.5,1.8,4.1,1.8s3-.6,4.2-1.8c1.2-1.2,1.7-2.8,1.7-4.9s-.6-3.6-1.7-4.8Z"/>
    <path class="cls-2" d="M278.1,199.8l-16.8,39.4h-8.8l6.1-13.6-10.9-25.8h9.2l6.2,16.7,6.1-16.7h8.9Z"/>
    <path class="cls-2" d="M313.2,192.9v6.6h-13.7v7.1h10.3v6.4h-10.3v13.6h-8.2v-33.6h21.9Z"/>
    <path class="cls-2" d="M355.6,192.9v33.6h-8.2v-20.2l-7.5,20.2h-6.6l-7.6-20.2v20.2h-8.2v-33.6h9.7l9.4,23.3,9.3-23.3h9.6Z"/>
    <path class="cls-2" d="M362.2,200.8c1.4-2.6,3.4-4.6,6-6.1,2.6-1.5,5.5-2.2,8.7-2.2s7.4,1.1,10.3,3.2c2.8,2.1,4.7,5,5.7,8.6h-9c-.7-1.4-1.6-2.5-2.9-3.2-1.2-.7-2.6-1.1-4.2-1.1-2.5,0-4.6.9-6.1,2.6-1.6,1.8-2.3,4.1-2.3,7s.8,5.3,2.3,7,3.6,2.6,6.1,2.6,3-.4,4.2-1.1c1.2-.7,2.2-1.8,2.9-3.2h9c-1,3.6-2.9,6.5-5.7,8.6-2.8,2.1-6.3,3.1-10.3,3.1s-6.2-.7-8.7-2.2c-2.6-1.5-4.6-3.5-6-6.1-1.4-2.6-2.2-5.5-2.2-8.9s.7-6.3,2.2-8.9Z"/>
    <path class="cls-2" d="M427.6,226.5l-11.3-14.9v14.9h-8.2v-33.6h8.2v14.8l11.2-14.8h9.6l-13,16.5,13.5,17.2h-10Z"/>
    <path class="cls-2" d="M446.6,225.2c-2.1-1.1-3.7-2.7-4.9-4.8-1.2-2.1-1.8-4.5-1.8-7.3s.6-5.2,1.8-7.3c1.2-2.1,2.9-3.7,5-4.8s4.5-1.7,7.1-1.7,5,.6,7.1,1.7,3.8,2.7,5,4.8c1.2,2.1,1.8,4.5,1.8,7.3s-.6,5.2-1.8,7.3c-1.2,2.1-2.9,3.7-5,4.8-2.1,1.1-4.5,1.7-7.1,1.7s-5-.6-7.1-1.7ZM447.1,195.6c-.7-.7-1-1.5-1-2.5s.3-1.8,1-2.5,1.5-1,2.5-1,1.9.3,2.5,1,1,1.5,1,2.5-.3,1.8-1,2.5c-.7.7-1.5,1-2.5,1s-1.8-.3-2.5-1ZM457.7,218.1c1.1-1.2,1.7-2.8,1.7-4.9s-.5-3.8-1.6-4.9c-1.1-1.2-2.4-1.7-4-1.7s-2.9.6-4,1.7c-1.1,1.1-1.6,2.8-1.6,5s.5,3.8,1.6,4.9,2.3,1.7,3.9,1.7,2.9-.6,4-1.7ZM456.7,195.6c-.7-.7-1-1.5-1-2.5s.3-1.8,1-2.5,1.5-1,2.5-1,1.9.3,2.5,1,1,1.5,1,2.5-.3,1.8-1,2.5-1.5,1-2.5,1-1.8-.3-2.5-1Z"/>
    <path class="cls-2" d="M495.9,202.5c1.9,2,2.8,4.8,2.8,8.4v15.6h-8.1v-14.5c0-1.8-.5-3.2-1.4-4.2s-2.2-1.5-3.7-1.5-2.8.5-3.7,1.5c-.9,1-1.4,2.4-1.4,4.2v14.5h-8.2v-35.5h8.2v12.3c.8-1.2,2-2.1,3.4-2.8,1.4-.7,3-1.1,4.8-1.1,3.1,0,5.5,1,7.4,3Z"/>
    <path class="cls-2" d="M512.6,191.1v35.5h-8.2v-35.5h8.2Z"/>
    <path class="cls-2" d="M543.6,215.1h-18.5c.1,1.7.7,2.9,1.6,3.8s2.1,1.3,3.5,1.3c2,0,3.5-.9,4.3-2.6h8.7c-.4,1.8-1.3,3.3-2.4,4.7-1.2,1.4-2.6,2.5-4.4,3.3-1.8.8-3.7,1.2-5.9,1.2s-5-.6-7-1.7c-2-1.1-3.6-2.7-4.8-4.8-1.1-2.1-1.7-4.5-1.7-7.3s.6-5.2,1.7-7.3c1.1-2.1,2.7-3.7,4.8-4.8,2-1.1,4.4-1.7,7-1.7s4.9.5,6.9,1.6,3.6,2.6,4.7,4.6c1.1,2,1.7,4.4,1.7,7s0,1.6-.1,2.4ZM535.3,210.6c0-1.4-.5-2.5-1.4-3.4s-2.2-1.2-3.6-1.2-2.5.4-3.5,1.2c-.9.8-1.5,1.9-1.7,3.4h10.3Z"/>
    <path class="cls-2" d="M559.8,200.8c1.4-.8,3-1.3,4.8-1.3v8.7h-2.3c-2,0-3.6.4-4.6,1.3-1,.9-1.5,2.4-1.5,4.6v12.4h-8.2v-26.7h8.2v4.5c1-1.5,2.2-2.6,3.6-3.5Z"/>
  </g>
</svg>